<svg xmlns="http://www.w3.org/2000/svg" xmlns:xlink="http://www.w3.org/1999/xlink" width="519.055" height="72.113" viewBox="0 0 519.055 72.113"><defs><linearGradient id="linear-gradient" x1="0.159" y1="0.751" x2="0.968" y2="0.156" gradientUnits="objectBoundingBox"><stop offset="0" stop-color="#782767"></stop><stop offset="0.331" stop-color="#a01a4f"></stop><stop offset="0.778" stop-color="#d10a33"></stop><stop offset="1" stop-color="#e40428"></stop></linearGradient><linearGradient id="linear-gradient-2" x1="-4.991" y1="1.156" x2="2.15" y2="0.325" xlink:href="#linear-gradient"></linearGradient><linearGradient id="linear-gradient-3" x1="-5.461" y1="1.246" x2="0.955" y2="0.415" xlink:href="#linear-gradient"></linearGradient><linearGradient id="linear-gradient-4" x1="-0.066" y1="0.578" x2="5.671" y2="-0.257" xlink:href="#linear-gradient"></linearGradient><linearGradient id="linear-gradient-5" x1="-1.33" y1="0.765" x2="4.815" y2="-0.067" xlink:href="#linear-gradient"></linearGradient><linearGradient id="linear-gradient-6" x1="-2.855" y1="0.889" x2="4.313" y2="0.058" xlink:href="#linear-gradient"></linearGradient><linearGradient id="linear-gradient-7" x1="-3.933" y1="1.014" x2="3.235" y2="0.183" xlink:href="#linear-gradient"></linearGradient></defs><g id="Group_5400" data-name="Group 5400" transform="translate(-191.612 -254.969)"><g id="Group_1" data-name="Group 1" transform="translate(191.612 254.968)"><path id="Path_1" data-name="Path 1" d="M261.037,311.1a16.264,16.264,0,0,0,.22-2.612V271.17a16.2,16.2,0,0,0-16.2-16.2H207.814a16.2,16.2,0,0,0-16.2,16.2v37.316c0,.068.009.134.01.2v2.192a16.2,16.2,0,0,0,16.2,16.2h37.241a16.2,16.2,0,0,0,16.2-16.2v-2.4A16.273,16.273,0,0,1,261.037,311.1ZM246.2,324.623c.184-.013.372-.012.555-.031C246.571,324.611,246.383,324.611,246.2,324.623Zm1.482-.173c.262-.043.526-.079.784-.134C248.207,324.372,247.943,324.409,247.681,324.451Zm1.61-.346c.278-.075.556-.149.827-.238C249.846,323.956,249.569,324.03,249.291,324.1Zm1.57-.51c.285-.11.568-.223.845-.348C251.428,323.372,251.146,323.485,250.861,323.595Zm1.505-.666q.436-.221.857-.467C252.942,322.626,252.657,322.781,252.366,322.929Zm1.424-.812c.3-.193.591-.4.877-.609C254.38,321.72,254.09,321.924,253.789,322.117Zm1.334-.951c.32-.254.627-.525.927-.8C255.75,320.642,255.444,320.912,255.123,321.167Zm1.232-1.079c.387-.377.757-.77,1.1-1.184Q256.938,319.524,256.355,320.087Zm4.628-8.633c-.063.341-.145.676-.229,1.01C260.838,312.13,260.919,311.8,260.983,311.455Zm-.347,1.466c-.09.315-.192.624-.3.931C260.444,313.545,260.546,313.235,260.636,312.92Zm-.475,1.408q-.173.445-.369.876Q259.99,314.773,260.161,314.329Zm-.594,1.342c-.14.281-.283.56-.439.832C259.285,316.23,259.429,315.952,259.568,315.67Zm-.7,1.268c-.165.269-.33.536-.51.794C258.534,317.475,258.7,317.207,258.865,316.938Zm-.8,1.177c-.194.261-.385.523-.593.771C257.683,318.638,257.875,318.376,258.068,318.115Z" transform="translate(-191.612 -254.968)" fill="url(#linear-gradient)"></path><path id="Path_2" data-name="Path 2" d="M245.081,408.29H207.84a16.2,16.2,0,0,1-16.2-16.2v2.4a16.2,16.2,0,0,0,16.2,16.2h37.241a16.2,16.2,0,0,0,16.2-16.2v-2.4A16.2,16.2,0,0,1,245.081,408.29Z" transform="translate(-191.628 -338.577)" fill="#0e1113" opacity="0.2"></path></g><path id="Path_3" data-name="Path 3" d="M439.21,306.007q1.134,0,1.134,1.085v4.686q0,1.085-1.134,1.085H417.653a13.177,13.177,0,0,0-3.182.321,4.29,4.29,0,0,0-2.022,1.085,4.141,4.141,0,0,0-1.06,2.072,14.89,14.89,0,0,0-.3,3.231v.493h27.871a.96.96,0,0,1,1.085,1.085v3.9a.959.959,0,0,1-1.085,1.085H411.092v.839a14.894,14.894,0,0,0,.3,3.231,4.135,4.135,0,0,0,1.06,2.071,4.271,4.271,0,0,0,2.022,1.086,13.162,13.162,0,0,0,3.182.321H439.21q1.134,0,1.134,1.084v4.687q0,1.086-1.134,1.086h-21.7a25.234,25.234,0,0,1-6.364-.691,9.72,9.72,0,0,1-4.267-2.245,9.067,9.067,0,0,1-2.417-4.045,20.757,20.757,0,0,1-.765-6.043V319.03a20.513,20.513,0,0,1,.765-6.018,9.071,9.071,0,0,1,2.417-4.02,9.917,9.917,0,0,1,4.267-2.269,24.445,24.445,0,0,1,6.364-.716Z" transform="translate(-129.317 -31.121)" fill="#262626"></path><path id="Path_4" data-name="Path 4" d="M587.059,306.007h-5.179a.959.959,0,0,0-1.085,1.085v25.749q0,.493-.395.493h-.444a.681.681,0,0,1-.641-.345l-18.351-24.072a15.777,15.777,0,0,0-1.233-1.5,4.674,4.674,0,0,0-1.134-.888,3.918,3.918,0,0,0-1.381-.419,16.493,16.493,0,0,0-1.973-.1h-7.677a.96.96,0,0,0-1.085,1.085v3.3c-.012.238-.019.485-.019.745v21.869a.353.353,0,0,1-.376.329h-.444a.682.682,0,0,1-.641-.345l-18.35-24.072a15.864,15.864,0,0,0-1.233-1.5,4.667,4.667,0,0,0-1.135-.888,3.916,3.916,0,0,0-1.381-.419,16.5,16.5,0,0,0-1.973-.1h-4.341a4.637,4.637,0,0,0-3.354,1.061q-1.086,1.061-1.085,4.069v28.314q0,1.086,1.135,1.086h5.179a.96.96,0,0,0,1.085-1.086V313.7c0-.329.13-.493.394-.493h.444a.847.847,0,0,1,.641.345l18.4,24.072a14.562,14.562,0,0,0,1.307,1.554,4.482,4.482,0,0,0,1.159.863,4.228,4.228,0,0,0,1.357.4,15.2,15.2,0,0,0,1.9.1h7.628a.96.96,0,0,0,1.085-1.086V313.7c0-.329.131-.493.394-.493h.444a.847.847,0,0,1,.641.345l18.4,24.072a14.74,14.74,0,0,0,1.307,1.554,4.5,4.5,0,0,0,1.159.863,4.231,4.231,0,0,0,1.357.4,15.2,15.2,0,0,0,1.9.1H583.7a4.638,4.638,0,0,0,3.355-1.061q1.085-1.061,1.085-4.07V307.092a.959.959,0,0,0-1.085-1.085" transform="translate(-195.447 -31.121)" fill="#262626"></path><path id="Path_5" data-name="Path 5" d="M751.742,306.007a24.766,24.766,0,0,1,6.388.715,9.941,9.941,0,0,1,4.292,2.269,8.9,8.9,0,0,1,2.392,4.02,21.18,21.18,0,0,1,.74,6.018v8.485a21.433,21.433,0,0,1-.74,6.042,8.9,8.9,0,0,1-2.392,4.045,9.736,9.736,0,0,1-4.292,2.245,25.55,25.55,0,0,1-6.388.69H736.5a25.234,25.234,0,0,1-6.363-.69,9.717,9.717,0,0,1-4.268-2.245,9.071,9.071,0,0,1-2.417-4.045,20.746,20.746,0,0,1-.765-6.042V319.03a20.5,20.5,0,0,1,.765-6.018,9.076,9.076,0,0,1,2.417-4.02,9.924,9.924,0,0,1,4.268-2.269,24.46,24.46,0,0,1,6.363-.715Zm-21.508,20.965a13.791,13.791,0,0,0,.321,3.231,4.414,4.414,0,0,0,1.061,2.071,4.105,4.105,0,0,0,2,1.085,13.139,13.139,0,0,0,3.181.321h14.651a13.139,13.139,0,0,0,3.182-.321,4.11,4.11,0,0,0,2-1.085,4.427,4.427,0,0,0,1.06-2.071,13.854,13.854,0,0,0,.321-3.231v-7.4a13.859,13.859,0,0,0-.321-3.231,4.434,4.434,0,0,0-1.06-2.072,4.132,4.132,0,0,0-2-1.085,13.174,13.174,0,0,0-3.182-.321H736.795a13.175,13.175,0,0,0-3.181.321,4.126,4.126,0,0,0-2,1.085,4.421,4.421,0,0,0-1.061,2.072,13.8,13.8,0,0,0-.321,3.231Z" transform="translate(-323.824 -31.121)" fill="#262626"></path><g id="Group_2" data-name="Group 2" transform="translate(447.551 274.789)"><path id="Path_6" data-name="Path 6" d="M1349.648,306.258h-21.7a24.455,24.455,0,0,0-6.363.715,9.92,9.92,0,0,0-4.266,2.269,9.088,9.088,0,0,0-2.418,4.02,20.549,20.549,0,0,0-.764,6.018v8.484a20.8,20.8,0,0,0,.764,6.043,9.082,9.082,0,0,0,2.418,4.045,9.714,9.714,0,0,0,4.266,2.244,25.228,25.228,0,0,0,6.363.69h21.7q1.134,0,1.134-1.085v-4.686q0-1.084-1.134-1.084h-21.556a13.136,13.136,0,0,1-3.181-.321,4.275,4.275,0,0,1-2.022-1.085,4.153,4.153,0,0,1-1.061-2.072,14.962,14.962,0,0,1-.3-3.231v-.839h27.87a.959.959,0,0,0,1.085-1.085v-3.9a.959.959,0,0,0-1.085-1.085h-27.87v-.493a14.962,14.962,0,0,1,.3-3.231,4.16,4.16,0,0,1,1.061-2.072,4.289,4.289,0,0,1,2.022-1.085,13.176,13.176,0,0,1,3.181-.321h21.556q1.134,0,1.134-1.085v-4.686Q1350.783,306.259,1349.648,306.258Z" transform="translate(-1132.01 -306.064)" fill="url(#linear-gradient-2)"></path><path id="Path_7" data-name="Path 7" d="M1456.8,306.258h-38.525q-1.135,0-1.134,1.085v4.834a1,1,0,0,0,1.134,1.134h15.489V339.7a.959.959,0,0,0,1.086,1.085h5.377a.959.959,0,0,0,1.085-1.085V313.312H1456.8a1,1,0,0,0,1.134-1.134v-4.834Q1457.938,306.259,1456.8,306.258Z" transform="translate(-1194.821 -306.064)" fill="url(#linear-gradient-3)"></path><path id="Path_8" data-name="Path 8" d="M891.941,305.76h-5.155a.955.955,0,0,0-1.08,1.08v25.629c0,.327-.5.686-.761.686h-.165a.4.4,0,0,1-.393-.344l-8.15-24.2a4.5,4.5,0,0,0-1.4-2.21,4.114,4.114,0,0,0-2.48-.638h-4.2a4.112,4.112,0,0,0-2.48.638,4.494,4.494,0,0,0-1.4,2.21l-8.15,24.2a.4.4,0,0,1-.393.344h-.166c-.262,0-.76-.359-.76-.686V306.84a.955.955,0,0,0-1.08-1.08h-5.156q-1.13,0-1.13,1.08v28.182q0,2.994,1.08,4.05a4.616,4.616,0,0,0,3.338,1.055h6.573a3.069,3.069,0,0,0,2.234-.785,7.7,7.7,0,0,0,1.547-2.946l7.708-23.321a.331.331,0,1,1,.663,0L878.3,336.4a7.691,7.691,0,0,0,1.546,2.946,3.072,3.072,0,0,0,2.234.785h6.572a4.616,4.616,0,0,0,3.339-1.055q1.08-1.057,1.08-4.05V306.84Q893.07,305.76,891.941,305.76Z" transform="translate(-847.448 -305.76)" fill="url(#linear-gradient-4)"></path><path id="Path_9" data-name="Path 9" d="M1026.243,309.227a9.824,9.824,0,0,0-4.222-2.246,24.2,24.2,0,0,0-6.321-.711h-15.234a24.494,24.494,0,0,0-6.347.711,9.831,9.831,0,0,0-4.248,2.246,8.755,8.755,0,0,0-2.357,3.965,20.883,20.883,0,0,0-.725,5.914v20.675q0,1.008,1.14,1.008h5.078q1.138,0,1.139-1.008v-13.4h27.824v13.4q0,1.008,1.192,1.008h5.078q1.138,0,1.14-1.008V319.106a20.233,20.233,0,0,0-.751-5.914A8.945,8.945,0,0,0,1026.243,309.227Zm-32.1,11.054v-.9a10.865,10.865,0,0,1,.337-2.956,3.728,3.728,0,0,1,1.14-1.857,4.88,4.88,0,0,1,2.176-.986,16.638,16.638,0,0,1,3.445-.3h13.679a16.26,16.26,0,0,1,3.419.3,4.868,4.868,0,0,1,2.151.986,3.734,3.734,0,0,1,1.139,1.857,10.89,10.89,0,0,1,.337,2.956v.9Z" transform="translate(-932.411 -306.071)" fill="url(#linear-gradient-5)"></path><path id="Path_10" data-name="Path 10" d="M1145.338,334.141h-21.679a13.145,13.145,0,0,1-3.181-.32,4.128,4.128,0,0,1-2-1.085,4.423,4.423,0,0,1-1.06-2.072,14.068,14.068,0,0,1-.321-3.28v-20.04a.959.959,0,0,0-1.085-1.085h-4.973q-1.135,0-1.134,1.085v20.421a20.768,20.768,0,0,0,.765,6.043,9.067,9.067,0,0,0,2.417,4.045,9.709,9.709,0,0,0,4.267,2.244,25.212,25.212,0,0,0,6.362.691h21.621a.959.959,0,0,0,1.085-1.085v-4.475A.96.96,0,0,0,1145.338,334.141Z" transform="translate(-1007.482 -306.064)" fill="url(#linear-gradient-6)"></path><path id="Path_11" data-name="Path 11" d="M1247.451,334.141h-21.68a13.142,13.142,0,0,1-3.181-.32,4.123,4.123,0,0,1-2-1.085,4.421,4.421,0,0,1-1.06-2.072,14.035,14.035,0,0,1-.321-3.28v-20.04a.959.959,0,0,0-1.085-1.085h-4.973q-1.135,0-1.134,1.085v20.421a20.776,20.776,0,0,0,.765,6.043,9.075,9.075,0,0,0,2.417,4.045,9.716,9.716,0,0,0,4.267,2.244,25.216,25.216,0,0,0,6.363.691h21.621a.959.959,0,0,0,1.084-1.085v-4.475A.959.959,0,0,0,1247.451,334.141Z" transform="translate(-1069.746 -306.064)" fill="url(#linear-gradient-7)"></path></g><g id="Group_6" data-name="Group 6" transform="translate(204.991 265.567)"><g id="Group_3" data-name="Group 3" transform="translate(1.165 1.101)" opacity="0.15"><path id="Path_12" data-name="Path 12" d="M236.483,325.163a20.893,20.893,0,0,1-1.829-7.622l-.017-.351V295.067a15.026,15.026,0,0,0-5.757-10.119v36.407l.011.209A15.015,15.015,0,0,0,246.8,335.58a20.995,20.995,0,0,1-10.319-10.417Z" transform="translate(-228.881 -284.948)" fill="#0e1113"></path><path id="Path_13" data-name="Path 13" d="M295.83,307.721v-2.077H290.4c0,4.039,0,7.95,0,11.862s0,7.823,0,11.862l.008.073c.014.144.022.237.028.3a.665.665,0,0,0,.031.172c.007.019.015.038.026.062.027.058.069.142.138.3q.051.113.112.221a2.812,2.812,0,0,0,.451.593,2.715,2.715,0,0,0,3.841,0,2.748,2.748,0,0,0,.472-.632c.042-.077.08-.157.114-.238s.066-.169.092-.254a2.722,2.722,0,0,0,.119-.8V307.721Z" transform="translate(-266.39 -297.568)" fill="#0e1113"></path><path id="Path_14" data-name="Path 14" d="M288.916,299.5v-6.47h-5.852v5.855h0v17.662a9.143,9.143,0,0,1-8.6,9.137c-.185.011-.37.019-.555.019h0c-.185,0-.369-.007-.553-.018a9.15,9.15,0,0,1-8.592-8.706l0-.076-.01-20.761a15.024,15.024,0,0,0-5.846-11.19v32.1l.011.209q.032.707.132,1.406t.264,1.385q.165.686.393,1.354t.52,1.313a15.053,15.053,0,0,0,2.606,3.959q.229.251.47.492a14.981,14.981,0,0,0,9.113,4.318,14.788,14.788,0,0,0,1.5.075,14.983,14.983,0,0,0,5.847-1.184q.668-.283,1.3-.628a15.041,15.041,0,0,0,6.049-6.049q.344-.635.627-1.3a14.87,14.87,0,0,0,.719-2.134q.185-.727.3-1.47a15,15,0,0,0,.167-2.245h0V299.5Z" transform="translate(-247.186 -284.948)" fill="#0e1113"></path></g><g id="Group_5" data-name="Group 5" transform="translate(0 0)"><g id="Group_4" data-name="Group 4"><path id="Path_15" data-name="Path 15" d="M233.5,322.342a20.892,20.892,0,0,1-1.829-7.622l-.017-.351V292.245a15.02,15.02,0,0,0-5.756-10.118v36.407l.01.21a15.015,15.015,0,0,0,17.911,14.015A21,21,0,0,1,233.5,322.342Z" transform="translate(-225.896 -282.127)" fill="#fff"></path><path id="Path_16" data-name="Path 16" d="M292.845,304.9v-2.077h-5.434c0,4.039,0,7.95,0,11.862s0,7.823,0,11.862l.008.073c.014.144.022.237.028.3a.67.67,0,0,0,.031.171c.007.019.015.038.026.062.027.059.069.142.137.3q.052.113.113.221a2.816,2.816,0,0,0,.451.593,2.724,2.724,0,0,0,4.313-.637c.042-.077.08-.157.114-.238s.065-.169.092-.254a2.747,2.747,0,0,0,.119-.8V304.9Z" transform="translate(-263.405 -294.747)" fill="#fff"></path><path id="Path_17" data-name="Path 17" d="M285.931,296.674V290.2h-5.852v5.855h0v17.662a9.144,9.144,0,0,1-8.6,9.137c-.185.011-.37.019-.555.019h0c-.185,0-.369-.007-.553-.018a9.151,9.151,0,0,1-8.592-8.706l0-.076-.01-20.761a15.013,15.013,0,0,0-5.845-11.19v32.1l.01.209c.022.471.066.94.132,1.406s.154.928.264,1.385.24.909.393,1.354.325.883.519,1.312a15.061,15.061,0,0,0,2.606,3.959q.23.251.471.492a14.984,14.984,0,0,0,9.113,4.318q.746.075,1.5.074a15.047,15.047,0,0,0,4.436-.669,14.854,14.854,0,0,0,1.411-.516q.667-.282,1.3-.628a15.039,15.039,0,0,0,6.049-6.049q.344-.635.627-1.3a15,15,0,0,0,1.184-5.849h0V296.674Z" transform="translate(-244.201 -282.127)" fill="#fff"></path></g></g></g></g></svg>