<?xml version="1.0" encoding="UTF-8" standalone="no"?>
<svg
   width="591.79816"
   height="106.11552"
   viewBox="0 0 591.79815 106.11552"
   version="1.1"
   id="svg914"
   sodipodi:docname="logo-exchange-dark.svg"
   inkscape:version="1.1.1 (3bf5ae0d25, 2021-09-20)"
   xmlns:inkscape="http://www.inkscape.org/namespaces/inkscape"
   xmlns:sodipodi="http://sodipodi.sourceforge.net/DTD/sodipodi-0.dtd"
   xmlns:xlink="http://www.w3.org/1999/xlink"
   xmlns="http://www.w3.org/2000/svg"
   xmlns:svg="http://www.w3.org/2000/svg">
  <sodipodi:namedview
     id="namedview916"
     pagecolor="#ffffff"
     bordercolor="#666666"
     borderopacity="1.0"
     inkscape:pageshadow="2"
     inkscape:pageopacity="0.0"
     inkscape:pagecheckerboard="0"
     showgrid="false"
     inkscape:zoom="1.2907121"
     inkscape:cx="538.84985"
     inkscape:cy="64.30559"
     inkscape:window-width="1920"
     inkscape:window-height="1043"
     inkscape:window-x="0"
     inkscape:window-y="0"
     inkscape:window-maximized="1"
     inkscape:current-layer="svg914"
     fit-margin-top="0"
     fit-margin-left="0"
     fit-margin-right="0"
     fit-margin-bottom="0" />
  <defs
     id="defs900">
    <path
       id="a"
       d="m 33.846,6.114 c 1.029,0 2.026,0.24 2.99,0.721 0.966,0.482 1.701,1.105 2.206,1.87 0.418,0.624 0.716,1.337 0.895,2.14 l 0.08,0.41 c 0.144,0.665 0.216,1.726 0.216,3.184 H 29.61 c 0.045,1.466 0.393,2.642 1.042,3.528 0.65,0.886 1.655,1.329 3.018,1.329 1.271,0 2.286,-0.418 3.044,-1.255 0.433,-0.486 0.74,-1.048 0.92,-1.687 h 2.395 c -0.063,0.531 -0.273,1.123 -0.63,1.775 -0.356,0.652 -0.755,1.185 -1.197,1.599 -0.74,0.72 -1.655,1.205 -2.746,1.457 a 8.367,8.367 0 0 1 -1.99,0.216 c -1.803,0 -3.332,-0.655 -4.586,-1.964 C 27.627,18.13 27,16.296 27,13.94 27,11.62 27.631,9.735 28.894,8.287 30.157,6.839 31.808,6.115 33.846,6.115 Z m -0.148,2.118 c -1.119,0 -2.057,0.402 -2.815,1.208 -0.757,0.805 -1.159,1.828 -1.204,3.07 h 8.05 C 37.631,11.457 37.4,10.616 37.039,9.986 36.372,8.816 35.259,8.232 33.698,8.232 Z m 8.145,-1.795 h 3.153 l 3.328,5.087 3.37,-5.087 2.962,0.068 -4.884,6.976 5.101,7.407 h -3.112 l -3.6,-5.424 -3.49,5.424 h -3.085 l 5.101,-7.407 z M 62.667,6.019 c 1.632,0 2.96,0.396 3.984,1.188 1.024,0.791 1.64,2.154 1.847,4.088 H 66.13 c -0.144,-0.89 -0.473,-1.63 -0.987,-2.22 -0.515,-0.589 -1.34,-0.884 -2.476,-0.884 -1.552,0 -2.661,0.756 -3.329,2.267 -0.433,0.98 -0.65,2.19 -0.65,3.63 0,1.448 0.307,2.667 0.92,3.656 0.614,0.99 1.58,1.484 2.896,1.484 1.01,0 1.811,-0.308 2.402,-0.924 0.59,-0.616 0.999,-1.46 1.224,-2.53 h 2.368 c -0.27,1.916 -0.947,3.317 -2.03,4.203 -1.082,0.886 -2.466,1.33 -4.153,1.33 -1.895,0 -3.405,-0.691 -4.533,-2.072 -1.128,-1.38 -1.691,-3.105 -1.691,-5.174 0,-2.537 0.618,-4.511 1.853,-5.923 1.236,-1.413 2.81,-2.119 4.723,-2.119 z M 70.934,1 h 2.435 v 7.394 c 0.578,-0.729 1.096,-1.241 1.556,-1.538 0.785,-0.513 1.764,-0.77 2.936,-0.77 2.102,0 3.527,0.734 4.276,2.2 0.406,0.8 0.609,1.911 0.609,3.333 v 9.269 H 80.243 V 11.78 c 0,-1.06 -0.136,-1.839 -0.406,-2.334 -0.442,-0.791 -1.272,-1.187 -2.49,-1.187 -1.01,0 -1.926,0.346 -2.746,1.039 -0.821,0.692 -1.232,2.001 -1.232,3.926 v 7.664 h -2.435 z m 21.094,5.087 c 1.705,0 3.09,0.323 4.154,0.971 1.055,0.648 1.583,1.655 1.583,3.022 v 8.325 c 0,0.252 0.052,0.455 0.155,0.607 0.104,0.153 0.323,0.23 0.657,0.23 0.108,0 0.23,-0.007 0.365,-0.02 0.135,-0.014 0.28,-0.034 0.433,-0.061 v 1.794 l -0.411,0.11 a 4.532,4.532 0 0 1 -0.455,0.093 c -0.198,0.027 -0.47,0.04 -0.812,0.04 -0.839,0 -1.448,-0.297 -1.826,-0.89 -0.199,-0.315 -0.339,-0.76 -0.42,-1.336 -0.496,0.648 -1.209,1.21 -2.138,1.687 -0.929,0.476 -1.953,0.715 -3.071,0.715 -1.344,0 -2.442,-0.407 -3.295,-1.221 -0.852,-0.814 -1.278,-1.833 -1.278,-3.056 0,-1.34 0.419,-2.38 1.258,-3.117 0.839,-0.738 1.94,-1.192 3.301,-1.363 l 3.884,-0.486 c 0.559,-0.072 0.933,-0.306 1.123,-0.701 0.108,-0.216 0.162,-0.527 0.162,-0.931 0,-0.828 -0.295,-1.428 -0.886,-1.802 -0.591,-0.373 -1.437,-0.56 -2.537,-0.56 -1.272,0 -2.174,0.342 -2.706,1.026 -0.298,0.378 -0.492,0.94 -0.582,1.687 h -2.273 c 0.045,-1.782 0.624,-3.02 1.738,-3.718 1.114,-0.697 2.407,-1.045 3.877,-1.045 z m 3.301,7.448 c -0.297,0.188 -0.68,0.346 -1.15,0.472 -0.469,0.126 -0.929,0.216 -1.38,0.27 l -1.475,0.188 c -0.884,0.117 -1.547,0.302 -1.989,0.554 -0.748,0.422 -1.123,1.097 -1.123,2.024 0,0.701 0.257,1.254 0.771,1.66 0.515,0.404 1.124,0.606 1.827,0.606 0.857,0 1.687,-0.198 2.49,-0.593 1.353,-0.657 2.03,-1.732 2.03,-3.225 v -1.956 z m 6.427,-7.098 h 2.314 v 2.051 c 0.686,-0.845 1.412,-1.452 2.178,-1.821 0.767,-0.369 1.62,-0.553 2.558,-0.553 2.056,0 3.446,0.715 4.167,2.145 0.397,0.783 0.596,1.902 0.596,3.36 v 9.269 h -2.477 V 11.78 c 0,-0.881 -0.13,-1.592 -0.392,-2.131 -0.433,-0.9 -1.218,-1.35 -2.354,-1.35 -0.578,0 -1.051,0.059 -1.421,0.176 -0.668,0.198 -1.254,0.593 -1.759,1.187 -0.406,0.477 -0.67,0.97 -0.792,1.478 -0.121,0.508 -0.182,1.234 -0.182,2.179 v 7.569 h -2.436 V 6.438 Z m 20.526,-0.256 c 1.137,0 2.129,0.279 2.977,0.837 0.46,0.314 0.929,0.773 1.407,1.376 V 6.572 h 2.246 v 13.142 c 0,1.835 -0.27,3.283 -0.812,4.345 -1.01,1.96 -2.918,2.941 -5.723,2.941 -1.56,0 -2.873,-0.349 -3.937,-1.046 -1.065,-0.697 -1.66,-1.787 -1.787,-3.272 h 2.477 c 0.117,0.648 0.351,1.147 0.703,1.498 0.55,0.54 1.416,0.81 2.598,0.81 1.867,0 3.09,-0.657 3.667,-1.97 0.343,-0.774 0.5,-2.155 0.473,-4.142 -0.487,0.737 -1.073,1.286 -1.759,1.646 -0.685,0.36 -1.592,0.54 -2.72,0.54 -1.569,0 -2.942,-0.556 -4.12,-1.667 -1.176,-1.11 -1.765,-2.948 -1.765,-5.512 0,-2.42 0.593,-4.308 1.78,-5.667 1.185,-1.358 2.617,-2.037 4.295,-2.037 z m 0.447,2.145 c -1.714,0 -2.887,0.801 -3.518,2.402 -0.334,0.855 -0.5,1.974 -0.5,3.36 0,1.628 0.33,2.867 0.994,3.717 0.663,0.85 1.553,1.275 2.672,1.275 1.75,0 2.981,-0.787 3.694,-2.361 0.397,-0.89 0.595,-1.93 0.595,-3.117 0,-1.79 -0.37,-3.117 -1.11,-3.98 -0.74,-0.864 -1.682,-1.296 -2.827,-1.296 z m 15.885,-2.212 c 1.028,0 2.025,0.24 2.99,0.721 0.965,0.482 1.7,1.105 2.205,1.87 0.418,0.624 0.716,1.337 0.895,2.14 l 0.08,0.41 c 0.144,0.665 0.216,1.726 0.216,3.184 h -10.621 c 0.045,1.466 0.392,2.642 1.041,3.528 0.65,0.886 1.656,1.329 3.018,1.329 1.272,0 2.286,-0.418 3.044,-1.255 0.433,-0.486 0.74,-1.048 0.92,-1.687 h 2.395 c -0.063,0.531 -0.273,1.123 -0.63,1.775 -0.355,0.652 -0.755,1.185 -1.197,1.599 -0.74,0.72 -1.655,1.205 -2.746,1.457 a 8.367,8.367 0 0 1 -1.99,0.216 c -1.803,0 -3.332,-0.655 -4.586,-1.964 -1.254,-1.308 -1.88,-3.141 -1.88,-5.498 0,-2.32 0.63,-4.205 1.893,-5.653 1.263,-1.448 2.914,-2.172 4.953,-2.172 z m -0.15,2.118 c -1.118,0 -2.056,0.402 -2.814,1.208 -0.757,0.805 -1.159,1.828 -1.204,3.07 h 8.05 c -0.098,-1.053 -0.328,-1.894 -0.69,-2.524 -0.667,-1.17 -1.78,-1.754 -3.341,-1.754 z" />
  </defs>
  <g
     fill="none"
     fill-rule="evenodd"
     id="g912"
     transform="matrix(4.0813664,0,0,4.0813664,0,-4.0813664)">
    <g
       fill-rule="nonzero"
       id="g906">
      <use
         fill="#000000"
         xlink:href="#a"
         id="use902"
         x="0"
         y="0"
         width="100%"
         height="100%" />
      <use
         fill="#FFF"
         xlink:href="#a"
         id="use904"
         style="fill:#333333"
         x="0"
         y="0"
         width="100%"
         height="100%" />
    </g>
    <path
       fill="#5a81ea"
       d="M 11,14 22,25 H 0 Z"
       id="path908" />
    <path
       fill="#e14b51"
       d="M 11,14 22,3 H 0 Z"
       id="path910" />
  </g>
</svg>
