<?xml version="1.0" encoding="UTF-8" standalone="no"?>
<svg
   viewBox="0 0 474 86.972481"
   class="css-1euhbwl"
   version="1.1"
   id="svg22"
   sodipodi:docname="neutrino-dark.svg"
   inkscape:version="1.1.2 (0a00cf5339, 2022-02-04)"
   width="474"
   height="86.972481"
   xmlns:inkscape="http://www.inkscape.org/namespaces/inkscape"
   xmlns:sodipodi="http://sodipodi.sourceforge.net/DTD/sodipodi-0.dtd"
   xmlns="http://www.w3.org/2000/svg"
   xmlns:svg="http://www.w3.org/2000/svg">
  <defs
     id="defs26" />
  <sodipodi:namedview
     id="namedview24"
     pagecolor="#ffffff"
     bordercolor="#666666"
     borderopacity="1.0"
     inkscape:pageshadow="2"
     inkscape:pageopacity="0.0"
     inkscape:pagecheckerboard="0"
     showgrid="false"
     inkscape:zoom="5.7110092"
     inkscape:cx="57.520482"
     inkscape:cy="5.4281124"
     inkscape:window-width="1920"
     inkscape:window-height="1043"
     inkscape:window-x="0"
     inkscape:window-y="0"
     inkscape:window-maximized="1"
     inkscape:current-layer="svg22"
     fit-margin-top="0"
     fit-margin-left="0"
     fit-margin-right="0"
     fit-margin-bottom="0" />
  <g
     id="g20"
     style="fill:#333333"
     transform="scale(4.3486239)">
    <path
       d="m 7.61185,7.1041 c 1.55185,0 2.80105,0.46556 3.74775,1.39667 0.9621,0.93112 1.4432,2.31223 1.4432,4.14343 v 7.1696 H 9.17146 v -6.6109 c 0,-0.9932 -0.21726,-1.7303 -0.65178,-2.2114 -0.43451,-0.4966 -1.06302,-0.7449 -1.8855,-0.7449 -0.91559,0 -1.64497,0.2871 -2.18812,0.8613 -0.54314,0.5587 -0.81472,1.3967 -0.81472,2.514 v 6.1919 H 0 V 7.29032 H 3.4684 V 8.75683 C 3.94947,8.2292 4.54694,7.82572 5.26079,7.54638 5.97464,7.25153 6.75833,7.1041 7.61185,7.1041 Z"
       fill="white"
       id="path2"
       style="fill:#333333" />
    <path
       d="m 23.4702,17.0903 c 0.6518,0 1.226,-0.0931 1.7226,-0.2793 0.5121,-0.2018 0.9854,-0.5122 1.4199,-0.9312 l 1.9321,2.095 C 27.3654,19.325 25.6428,20 23.3771,20 c -1.4122,0 -2.6614,-0.2716 -3.7477,-0.8147 -1.0863,-0.5587 -1.9243,-1.3268 -2.514,-2.3045 -0.5897,-0.9777 -0.8846,-2.0873 -0.8846,-3.3287 0,-1.226 0.2871,-2.3278 0.8613,-3.3055 0.5897,-0.99318 1.3889,-1.76135 2.3976,-2.3045 1.0242,-0.55866 2.1726,-0.838 3.4451,-0.838 1.195,0 2.2813,0.25606 3.2589,0.76817 0.9777,0.49659 1.7536,1.22597 2.3278,2.18813 0.5897,0.9466 0.8846,2.0717 0.8846,3.3753 l -9.2646,1.7924 c 0.2638,0.6207 0.6751,1.0863 1.2337,1.3966 0.5742,0.3104 1.2725,0.4656 2.095,0.4656 z M 22.9348,9.85089 c -0.9156,0 -1.6604,0.29481 -2.2346,0.88451 -0.5742,0.5897 -0.8768,1.4045 -0.9079,2.4442 l 6.0988,-1.1872 C 25.7204,11.3407 25.3713,10.8208 24.8436,10.4328 24.316,10.0449 23.6797,9.85089 22.9348,9.85089 Z"
       fill="white"
       id="path4"
       style="fill:#333333" />
    <path
       d="M 45.3947,7.29032 V 19.8138 H 41.9496 V 18.324 C 41.4685,18.8672 40.8943,19.2862 40.227,19.581 39.5597,19.8604 38.8381,20 38.0622,20 36.4172,20 35.1136,19.5267 34.1515,18.5801 33.1893,17.6334 32.7083,16.229 32.7083,14.3668 V 7.29032 h 3.6313 v 6.54108 c 0,2.0174 0.8458,3.0261 2.5373,3.0261 0.869,0 1.5674,-0.2793 2.095,-0.838 0.5276,-0.5742 0.7914,-1.4199 0.7914,-2.5373 V 7.29032 Z"
       fill="white"
       id="path6"
       style="fill:#333333" />
    <path
       d="m 57.232,19.2086 c -0.3569,0.2638 -0.7992,0.4655 -1.3268,0.6052 C 55.393,19.9379 54.8577,20 54.299,20 52.7937,20 51.6376,19.6198 50.8306,18.8594 50.0236,18.099 49.6201,16.9817 49.6201,15.5074 V 4.52026 h 3.6314 v 3.0494 h 3.0959 V 10.363 h -3.0959 v 5.0978 c 0,0.5277 0.1319,0.9389 0.3957,1.2338 0.2638,0.2793 0.644,0.419 1.1406,0.419 0.5587,0 1.0553,-0.1552 1.4898,-0.4656 z"
       fill="white"
       id="path8"
       style="fill:#333333" />
    <path
       d="M 63.6825,8.94305 C 64.117,8.33783 64.699,7.88003 65.4283,7.56966 66.1732,7.25929 67.0267,7.1041 67.9889,7.1041 v 3.352 c -0.4035,-0.031 -0.6751,-0.0465 -0.8147,-0.0465 -1.0398,0 -1.8545,0.2948 -2.4442,0.8845 -0.5897,0.5742 -0.8846,1.4432 -0.8846,2.6071 v 5.9126 H 60.2141 V 7.29032 h 3.4684 z"
       fill="white"
       id="path10"
       style="fill:#333333" />
    <path
       d="m 71.0792,7.29032 h 3.6313 V 19.8138 h -3.6313 z"
       fill="white"
       id="path12"
       style="fill:#333333" />
    <path
       d="m 86.6237,7.1041 c 1.5518,0 2.8011,0.46556 3.7477,1.39667 0.9622,0.93112 1.4433,2.31223 1.4433,4.14343 v 7.1696 h -3.6314 v -6.6109 c 0,-0.9932 -0.2173,-1.7303 -0.6518,-2.2114 -0.4345,-0.4966 -1.063,-0.7449 -1.8855,-0.7449 -0.9156,0 -1.6449,0.2871 -2.1881,0.8613 -0.5431,0.5587 -0.8147,1.3967 -0.8147,2.514 v 6.1919 H 79.0118 V 7.29032 h 3.4684 V 8.75683 C 82.9613,8.2292 83.5588,7.82572 84.2726,7.54638 84.9865,7.25153 85.7702,7.1041 86.6237,7.1041 Z"
       fill="white"
       id="path14"
       style="fill:#333333" />
    <path
       d="m 102.133,20 c -1.319,0 -2.5063,-0.2716 -3.5616,-0.8147 -1.0397,-0.5587 -1.8545,-1.3268 -2.4442,-2.3045 -0.5897,-0.9777 -0.8845,-2.0873 -0.8845,-3.3287 0,-1.2415 0.2948,-2.3511 0.8845,-3.3288 0.5897,-0.97764 1.4045,-1.73805 2.4442,-2.2812 1.0553,-0.55866 2.2426,-0.838 3.5616,-0.838 1.319,0 2.498,0.27934 3.538,0.838 1.04,0.54315 1.855,1.30356 2.444,2.2812 0.59,0.9777 0.885,2.0873 0.885,3.3288 0,1.2414 -0.295,2.351 -0.885,3.3287 -0.589,0.9777 -1.404,1.7458 -2.444,2.3045 C 104.631,19.7284 103.452,20 102.133,20 Z m 0,-2.9795 c 0.931,0 1.691,-0.3104 2.281,-0.9312 0.605,-0.6362 0.908,-1.482 0.908,-2.5372 0,-1.0553 -0.303,-1.8933 -0.908,-2.514 -0.59,-0.6363 -1.35,-0.9544 -2.281,-0.9544 -0.931,0 -1.699,0.3181 -2.3046,0.9544 -0.6052,0.6207 -0.9078,1.4587 -0.9078,2.514 0,1.0552 0.3026,1.901 0.9078,2.5372 0.6056,0.6208 1.3736,0.9312 2.3046,0.9312 z"
       fill="white"
       id="path16"
       style="fill:#333333" />
    <path
       d="M 72.8703,0 75.7822,2.91188 72.8703,5.82377 69.9584,2.91188 Z"
       fill="white"
       id="path18"
       style="fill:#333333" />
  </g>
</svg>
