<?xml version="1.0" encoding="UTF-8" standalone="no"?>
<svg
   width="473.77866"
   height="140.8174"
   viewBox="0 0 473.77865 140.8174"
   fill="none"
   class="LandingIntroBlock_logo__2gant"
   version="1.1"
   id="svg16"
   sodipodi:docname="swop-logo.svg"
   inkscape:version="1.1.2 (0a00cf5339, 2022-02-04)"
   xmlns:inkscape="http://www.inkscape.org/namespaces/inkscape"
   xmlns:sodipodi="http://sodipodi.sourceforge.net/DTD/sodipodi-0.dtd"
   xmlns="http://www.w3.org/2000/svg"
   xmlns:svg="http://www.w3.org/2000/svg">
  <defs
     id="defs20" />
  <sodipodi:namedview
     id="namedview18"
     pagecolor="#ffffff"
     bordercolor="#666666"
     borderopacity="1.0"
     inkscape:pageshadow="2"
     inkscape:pageopacity="0.0"
     inkscape:pagecheckerboard="0"
     showgrid="false"
     fit-margin-top="0"
     fit-margin-left="0"
     fit-margin-right="0"
     fit-margin-bottom="0"
     inkscape:zoom="1.0189212"
     inkscape:cx="290.0126"
     inkscape:cy="51.034367"
     inkscape:window-width="1920"
     inkscape:window-height="1043"
     inkscape:window-x="0"
     inkscape:window-y="0"
     inkscape:window-maximized="1"
     inkscape:current-layer="svg16" />
  <path
     d="m 20.02756,54.15424 c 0,2.56991 1.428764,4.598115 4.245279,6.092534 2.824701,1.49486 6.273483,2.783776 10.338121,3.859705 4.064638,1.075489 8.145689,2.348123 12.267885,3.785336 4.121976,1.436773 7.587393,3.900189 10.420014,7.332604 2.824701,3.448694 4.245631,7.792897 4.245631,13.031729 0,7.406531 -2.866064,13.211712 -8.564751,17.432702 -5.714968,4.22055 -12.875379,6.33104 -21.521935,6.33104 -7.611948,0 -14.140003,-1.59299 -19.584162,-4.77942 C 6.4295261,104.05449 2.4552009,99.620516 0,93.962754 L 14.328873,85.62023 c 2.668702,7.406532 8.383801,11.101656 17.128931,11.101656 8.745128,0 13.113402,-2.873986 13.113402,-8.630318 0,-2.471338 -1.428631,-4.466979 -4.245147,-6.018606 -2.8247,-1.552067 -6.273482,-2.849343 -10.33812,-3.925273 C 25.923301,77.072201 21.834066,75.799128 17.720142,74.362354 13.598033,72.933502 10.132836,70.535654 7.2999069,67.193891 4.4752068,63.827046 3.0546322,59.598136 3.0546322,54.441596 c 0,-7.094536 2.6933399,-12.809855 8.1128568,-17.129019 5.394873,-4.319209 12.095339,-6.478769 20.126087,-6.478769 6.380241,0 12.054284,1.428765 17.055046,4.24528 4.98448,2.832928 8.81074,6.757938 11.479662,11.799757 l -14.04165,7.874749 c -2.668702,-5.862828 -7.496964,-8.802821 -14.501287,-8.802821 -3.186028,0 -5.862913,0.697923 -8.014289,2.07749 -2.151374,1.404209 -3.243498,3.449136 -3.243498,6.125977 z"
     fill="#173937"
     id="path2"
     style="stroke-width:4.40053" />
  <path
     d="m 162.67527,32.853564 h 17.58891 L 156.04059,109.99124 H 139.68338 L 123.63025,57.996784 107.43718,109.99124 H 91.080408 L 66.85681,32.853564 H 84.445288 L 99.406649,86.071725 115.59928,32.853564 h 15.89735 l 16.05314,53.218161 z"
     fill="#173937"
     id="path4"
     style="stroke-width:4.40053" />
  <path
     d="m 324.17692,30.842389 c 10.58458,0 19.64175,3.941467 27.13895,11.799757 7.49673,7.874616 11.25743,17.45721 11.25743,28.772734 0,11.413653 -3.7607,21.020891 -11.25743,28.84635 -7.50556,7.82546 -16.57065,11.71773 -27.13895,11.71773 -11.71729,0 -20.72519,-4.31912 -26.99902,-12.965717 V 140.8174 H 280.51706 V 32.854179 h 16.66084 v 11.10179 c 6.29011,-8.728714 15.28173,-13.11358 26.99902,-13.11358 z m -20.0519,58.251619 c 4.63948,4.680403 10.45302,7.012244 17.4327,7.012244 6.98761,0 12.80951,-2.331841 17.4327,-7.012244 4.63948,-4.680404 6.93875,-10.576233 6.93875,-17.670768 0,-7.094974 -2.30763,-12.974082 -6.93875,-17.671207 -4.62319,-4.680405 -10.43673,-7.012246 -17.4327,-7.012246 -6.99641,0 -12.80993,2.331841 -17.4327,7.012246 -4.62319,4.680402 -6.93876,10.576233 -6.93876,17.671207 0,7.094535 2.31557,12.990364 6.93876,17.670768 z"
     fill="#173937"
     id="path6"
     style="stroke-width:4.40053" />
  <path
     d="m 392.90616,108.44666 c -2.26629,2.26627 -4.98449,3.39105 -8.17048,3.39105 -3.18597,0 -5.91211,-1.13314 -8.17046,-3.39105 -2.27463,-2.26627 -3.40776,-4.98448 -3.40776,-8.17047 0,-3.185979 1.10057,-5.912108 3.30918,-8.17046 2.21743,-2.274194 4.97613,-3.40777 8.25276,-3.40777 3.18599,0 5.91211,1.133576 8.17002,3.40777 2.26673,2.266714 3.3915,4.984481 3.3915,8.17046 0.008,3.18599 -1.11685,5.91212 -3.37476,8.17047 z"
     fill="#173937"
     id="path8"
     style="stroke-width:4.40053" />
  <path
     d="M 473.77425,32.853741 V 109.99124 H 457.09623 V 48.907048 H 431.4922 V 110.00797 H 414.83135 V 48.907048 H 403.11362 V 32.853741 h 11.71773 V 31.301762 C 414.83971,10.436649 426.44215,0 449.70334,0 c 5.44786,0 11.14654,0.67333388 17.13128,1.9953674 V 17.276744 c -5.46107,-0.821139 -11.15976,-1.231708 -17.13128,-1.231708 -6.17392,0 -10.75532,1.133181 -13.72789,3.391312 -2.98884,2.266318 -4.46697,6.232427 -4.46697,11.873641 v 1.551935 h 42.27018 v -0.0081 z"
     fill="#173937"
     id="path10"
     style="stroke-width:4.40053" />
  <path
     fill-rule="evenodd"
     clip-rule="evenodd"
     d="m 267.36255,80.469409 c 1.0262,-3.58027 1.57627,-7.365607 1.57627,-11.282517 0,-22.532035 -18.26219,-40.794013 -40.7938,-40.794013 -15.40493,0 -28.81377,8.539844 -35.75253,21.135966 l 12.80994,10.814301 c 3.54727,-9.204588 12.48915,-15.741135 22.94259,-15.741135 9.16367,0 17.16164,5.017484 21.39055,12.448658 l -7.72689,1.962636 11.34808,9.443097 z m -4.18798,9.640241 c -7.12754,11.90651 -20.15091,19.87983 -35.02955,19.87983 -22.53202,0 -40.79422,-18.262195 -40.79422,-40.794228 0,-3.383127 0.41057,-6.667683 1.19078,-9.812742 l 12.08694,10.20703 12.04601,10.025726 -6.01905,1.527424 c 4.19636,7.538108 12.25153,12.637443 21.48954,12.637443 9.92717,0 18.48356,-5.88747 22.36746,-14.36157 z"
     fill="#173937"
     id="path12"
     style="stroke-width:4.40053" />
  <path
     fill-rule="evenodd"
     clip-rule="evenodd"
     d="m 267.36255,80.469409 c 1.0262,-3.58027 1.57671,-7.365607 1.57671,-11.282517 0,-22.532035 -18.2622,-40.794013 -40.79424,-40.794013 -15.40447,0 -28.81377,8.539844 -35.75253,21.135966 l 12.80994,10.814301 c 3.54727,-9.204588 12.48959,-15.741135 22.94259,-15.741135 9.16367,0 17.16164,5.017484 21.39055,12.448658 l -7.72689,1.962636 11.34808,9.443097 z"
     fill="#12a17e"
     id="path14"
     style="stroke-width:4.40053" />
</svg>
