<svg width="108" height="32" viewBox="0 0 108 32" fill="none" xmlns="http://www.w3.org/2000/svg" class="LandingIntroBlock_logo__2gant"><path d="M4.55117 12.3063C4.55117 12.8903 4.87585 13.3512 5.51589 13.6908C6.15779 14.0305 6.94151 14.3234 7.86518 14.5679C8.78885 14.8123 9.71625 15.1015 10.653 15.4281C11.5897 15.7546 12.3772 16.3144 13.0209 17.0944C13.6628 17.8781 13.9857 18.8653 13.9857 20.0558C13.9857 21.7389 13.3344 23.0581 12.0394 24.0173C10.7407 24.9764 9.11353 25.456 7.14864 25.456C5.41886 25.456 3.93539 25.094 2.69823 24.3699C1.46108 23.6459 0.557933 22.6383 0 21.3526L3.25617 19.4568C3.86262 21.1399 5.16135 21.9796 7.14864 21.9796C9.13593 21.9796 10.1286 21.3265 10.1286 20.0184C10.1286 19.4568 9.80395 19.0033 9.16391 18.6507C8.52201 18.298 7.73829 18.0032 6.81462 17.7587C5.89095 17.5143 4.96169 17.225 4.02682 16.8985C3.09009 16.5738 2.30264 16.0289 1.65887 15.2695C1.01697 14.5044 0.694151 13.5434 0.694151 12.3716C0.694151 10.7594 1.3062 9.46062 2.53776 8.47911C3.76372 7.49759 5.28637 7.00684 7.11132 7.00684C8.5612 7.00684 9.8506 7.33152 10.987 7.97156C12.1197 8.61533 12.9892 9.50727 13.5957 10.653L10.4048 12.4425C9.79835 11.1102 8.70115 10.4421 7.10945 10.4421C6.38544 10.4421 5.77713 10.6007 5.28824 10.9142C4.79935 11.2333 4.55117 11.698 4.55117 12.3063Z" fill="#173937"></path><path d="M36.9672 7.46582H40.9642L35.4595 24.995H31.7424L28.0944 13.1795L24.4146 24.995H20.6976L15.1929 7.46582H19.1898L22.5897 19.5594L26.2694 7.46582H29.882L33.53 19.5594L36.9672 7.46582Z" fill="#173937"></path><path d="M73.6677 7.00879C76.073 7.00879 78.1312 7.90447 79.8349 9.69023C81.5385 11.4797 82.3931 13.6573 82.3931 16.2287C82.3931 18.8224 81.5385 21.0056 79.8349 22.7839C78.1293 24.5622 76.0693 25.4467 73.6677 25.4467C71.005 25.4467 68.958 24.4652 67.5323 22.5003V32.0001H63.7462V7.46596H67.5323V9.98879C68.9617 8.00523 71.005 7.00879 73.6677 7.00879ZM69.111 20.2462C70.1653 21.3098 71.4864 21.8397 73.0725 21.8397C74.6604 21.8397 75.9834 21.3098 77.034 20.2462C78.0883 19.1826 78.6108 17.8428 78.6108 16.2306C78.6108 14.6183 78.0864 13.2823 77.034 12.2149C75.9834 11.1513 74.6623 10.6214 73.0725 10.6214C71.4826 10.6214 70.1615 11.1513 69.111 12.2149C68.0604 13.2785 67.5342 14.6183 67.5342 16.2306C67.5342 17.8428 68.0604 19.1826 69.111 20.2462Z" fill="#173937"></path><path d="M89.2861 24.644C88.7711 25.159 88.1534 25.4146 87.4294 25.4146C86.7054 25.4146 86.0859 25.1571 85.5727 24.644C85.0558 24.129 84.7983 23.5113 84.7983 22.7873C84.7983 22.0633 85.0484 21.4438 85.5503 20.9306C86.0542 20.4138 86.6811 20.1562 87.4257 20.1562C88.1497 20.1562 88.7692 20.4138 89.2823 20.9306C89.7974 21.4457 90.053 22.0633 90.053 22.7873C90.0549 23.5113 89.7992 24.1308 89.2861 24.644Z" fill="#173937"></path><path d="M107.663 7.46586V24.995H103.873V11.1139H98.0546V24.9988H94.2685V11.1139H91.6057V7.46586H94.2685V7.11318C94.2704 2.37168 96.907 0 102.193 0C103.431 0 104.726 0.153012 106.086 0.453438V3.92606C104.845 3.73946 103.55 3.64616 102.193 3.64616C100.79 3.64616 99.7489 3.90367 99.0734 4.41682C98.3942 4.93183 98.0583 5.83311 98.0583 7.11505V7.46772H107.664V7.46586H107.663Z" fill="#173937"></path><path fill-rule="evenodd" clip-rule="evenodd" d="M60.7569 18.2863C60.9901 17.4727 61.1151 16.6125 61.1151 15.7224C61.1151 10.6021 56.9651 6.45215 51.8449 6.45215C48.3442 6.45215 45.2971 8.39279 43.7203 11.2552L46.6313 13.7127C47.4374 11.621 49.4694 10.1356 51.8449 10.1356C53.9273 10.1356 55.7448 11.2758 56.7058 12.9645L54.9499 13.4105L57.5287 15.5564L60.7569 18.2863ZM59.8052 20.477C58.1855 23.1827 55.226 24.9946 51.8449 24.9946C46.7246 24.9946 42.5746 20.8446 42.5746 15.7243C42.5746 14.9555 42.6679 14.2091 42.8452 13.4944L45.5919 15.8139L48.3293 18.0922L46.9615 18.4393C47.9151 20.1523 49.7456 21.3111 51.8449 21.3111C54.1008 21.3111 56.0452 19.9732 56.9278 18.0475L59.8052 20.477Z" fill="#173937"></path><path fill-rule="evenodd" clip-rule="evenodd" d="M60.7569 18.2863C60.9901 17.4727 61.1152 16.6125 61.1152 15.7224C61.1152 10.6021 56.9652 6.45215 51.8449 6.45215C48.3443 6.45215 45.2971 8.39279 43.7203 11.2552L46.6313 13.7127C47.4374 11.621 49.4695 10.1356 51.8449 10.1356C53.9273 10.1356 55.7448 11.2758 56.7058 12.9645L54.9499 13.4105L57.5287 15.5564L60.7569 18.2863Z" fill="#12A17E"></path></svg>
