<svg xmlns="http://www.w3.org/2000/svg" width="281" height="52" viewBox="0 0 281 52" fill="none">
  <path d="m167.542 5.394-5.315 16.263h-4.046l-3.57-11.027-3.728 11.027h-4.046l-5.315-16.263h3.887l3.649 11.424 3.808-11.424h3.49l3.729 11.503 3.808-11.503h3.649Z" fill="#000"/>
  <path d="M177.932 10.313c1.031.952 1.587 2.3 1.587 4.204v7.14h-3.411V20.07c-.714 1.19-1.984 1.745-3.808 1.745-.952 0-1.825-.158-2.459-.476-.714-.317-1.27-.793-1.587-1.348-.397-.555-.555-1.19-.555-1.983 0-1.19.476-2.063 1.348-2.777.873-.635 2.222-1.031 4.046-1.031h2.856c0-.793-.238-1.428-.714-1.825-.476-.396-1.19-.634-2.142-.634-.635 0-1.349.079-1.983.317-.635.238-1.19.476-1.666.873l-1.269-2.539a7.758 7.758 0 0 1 2.459-1.11c.952-.239 1.904-.397 2.935-.397 1.825.08 3.332.555 4.363 1.428Zm-3.094 8.646c.476-.317.794-.713 1.032-1.269v-1.269h-2.46c-1.507 0-2.221.476-2.221 1.428 0 .476.159.793.555 1.11.397.239.873.397 1.508.397.555 0 1.11-.08 1.586-.397Z" fill="#000"/>
  <path d="m194.909 9.123-5.236 12.454h-3.728l-5.236-12.454h3.728l3.491 8.488 3.57-8.488h3.411Z" fill="#000"/>
  <path d="M208.236 16.421h-9.44c.159.793.555 1.349 1.19 1.825.635.476 1.428.634 2.38.634.635 0 1.19-.079 1.745-.317.476-.159.952-.476 1.428-.952l1.904 2.063c-1.19 1.348-2.856 1.983-5.156 1.983-1.428 0-2.618-.238-3.729-.793-1.11-.556-1.904-1.349-2.538-2.301-.556-.952-.873-2.063-.873-3.332 0-1.19.317-2.3.873-3.332a6.04 6.04 0 0 1 2.379-2.3c1.032-.555 2.142-.793 3.412-.793 1.19 0 2.3.238 3.331.793.952.555 1.746 1.27 2.301 2.3.555.952.873 2.142.873 3.412 0 .158-.08.476-.08 1.11Zm-8.488-4.046c-.555.476-.873 1.111-1.031 1.904h6.187c-.158-.793-.476-1.428-1.031-1.904-.555-.476-1.269-.714-2.062-.714-.794.08-1.508.238-2.063.714Z" fill="#000"/>
  <path d="M211.885 21.419c-.952-.238-1.745-.556-2.38-.952l1.19-2.618c.556.317 1.19.635 1.984.873a8.023 8.023 0 0 0 2.3.317c1.507 0 2.301-.397 2.301-1.11 0-.318-.238-.635-.635-.794-.397-.159-1.031-.317-1.904-.397-1.031-.158-1.904-.317-2.538-.555-.635-.238-1.27-.555-1.746-1.031-.476-.476-.714-1.27-.714-2.142 0-.793.238-1.507.714-2.063.476-.634 1.111-1.11 1.984-1.428.872-.317 1.903-.476 3.093-.476.873 0 1.746.08 2.618.318a6.715 6.715 0 0 1 2.142.793l-1.19 2.539a7.075 7.075 0 0 0-3.57-.952c-.793 0-1.348.079-1.745.317s-.555.476-.555.873c0 .396.238.634.634.793.397.159 1.111.317 1.984.476 1.031.159 1.824.317 2.538.555.635.159 1.19.555 1.666 1.031.476.476.714 1.19.714 2.142 0 .794-.238 1.428-.714 2.063-.476.634-1.111 1.11-2.062 1.428-.873.317-1.984.476-3.174.476a18.84 18.84 0 0 1-2.935-.476Z" fill="#000"/>
  <path d="M153.658 42.282h-7.536l-1.428 3.49h-3.887l7.219-16.261h3.728l7.299 16.262h-3.967l-1.428-3.49Zm-1.11-2.855-2.539-6.188-2.538 6.188h5.077Z" fill="#05F"/>
  <path d="M161.591 45.535c-.952-.238-1.745-.556-2.38-.952l1.19-2.618c.556.317 1.19.635 1.984.872a8.02 8.02 0 0 0 2.3.318c1.507 0 2.301-.397 2.301-1.11 0-.318-.238-.635-.635-.794-.397-.159-1.031-.317-1.904-.397-1.031-.158-1.904-.317-2.538-.555-.635-.238-1.27-.555-1.746-1.031-.476-.476-.714-1.27-.714-2.142 0-.793.238-1.507.714-2.063.476-.634 1.111-1.11 1.984-1.428.872-.317 1.903-.476 3.093-.476.873 0 1.746.08 2.618.318a6.717 6.717 0 0 1 2.142.793l-1.19 2.538a7.076 7.076 0 0 0-3.57-.951c-.793 0-1.348.079-1.745.317-.396.238-.555.476-.555.873 0 .396.238.634.635.793.396.158 1.11.317 1.983.476 1.031.158 1.824.317 2.538.555.635.159 1.19.555 1.666 1.031.476.476.714 1.19.714 2.142 0 .794-.238 1.428-.714 2.063-.476.634-1.11 1.11-2.062 1.428-.873.317-1.984.476-3.174.476a18.86 18.86 0 0 1-2.935-.476Z" fill="#05F"/>
  <path d="M173.887 45.535c-.952-.238-1.745-.556-2.38-.952l1.19-2.618a9.3 9.3 0 0 0 1.983.872 8.03 8.03 0 0 0 2.301.318c1.507 0 2.301-.397 2.301-1.11 0-.318-.238-.635-.635-.794-.397-.159-1.031-.317-1.904-.397-1.031-.158-1.904-.317-2.538-.555-.635-.238-1.27-.555-1.746-1.031-.476-.476-.714-1.27-.714-2.142 0-.793.238-1.507.714-2.063.476-.634 1.111-1.11 1.984-1.428.872-.317 1.903-.476 3.093-.476.873 0 1.746.08 2.618.318a6.717 6.717 0 0 1 2.142.793l-1.19 2.538a7.076 7.076 0 0 0-3.57-.951c-.793 0-1.348.079-1.745.317s-.555.476-.555.873c0 .396.238.634.634.793.397.158 1.111.317 1.984.476 1.031.158 1.824.317 2.538.555.714.238 1.19.555 1.666 1.031.476.476.714 1.19.714 2.142 0 .794-.238 1.428-.714 2.063-.476.634-1.111 1.11-2.062 1.428-.873.317-1.984.476-3.174.476a18.84 18.84 0 0 1-2.935-.476Z" fill="#05F"/>
  <path d="M187.452 45.138c-1.031-.555-1.824-1.349-2.459-2.3-.555-.952-.872-2.063-.872-3.332 0-1.27.317-2.38.872-3.332.556-.952 1.428-1.745 2.459-2.3 1.032-.556 2.222-.794 3.57-.794 1.349 0 2.459.238 3.491.793 1.031.556 1.824 1.349 2.459 2.3.555.953.872 2.063.872 3.333 0 1.269-.317 2.38-.872 3.331-.555.952-1.428 1.746-2.459 2.301-1.032.555-2.222.793-3.491.793-1.348 0-2.538-.238-3.57-.793Zm5.791-3.094c.635-.634.873-1.428.873-2.538 0-1.11-.317-1.904-.873-2.539-.634-.634-1.348-.952-2.3-.952-.952 0-1.666.318-2.301.952-.634.635-.872 1.428-.872 2.539 0 1.11.317 1.904.872 2.538.635.635 1.349.952 2.301.952.952 0 1.745-.317 2.3-.952Z" fill="#05F"/>
  <path d="M202.684 45.138c-1.031-.555-1.904-1.349-2.459-2.3-.635-.952-.873-2.063-.873-3.332 0-1.27.317-2.38.873-3.332.634-.952 1.428-1.745 2.459-2.3 1.031-.556 2.221-.794 3.57-.794 1.348 0 2.459.238 3.411.793.952.556 1.666 1.349 2.142 2.38l-2.777 1.508c-.634-1.111-1.586-1.746-2.776-1.746-.952 0-1.746.318-2.38.952-.635.635-.952 1.428-.952 2.539 0 1.031.317 1.904.952 2.538.634.635 1.428.952 2.38.952 1.269 0 2.142-.555 2.776-1.745l2.777 1.507a5.44 5.44 0 0 1-2.142 2.3c-.952.556-2.142.873-3.411.873-1.349 0-2.539-.238-3.57-.793Z" fill="#05F"/>
  <path d="M214.107 30.938c-.397-.396-.635-.872-.635-1.428 0-.555.238-1.031.635-1.428.396-.396.952-.555 1.586-.555.635 0 1.19.159 1.587.555.397.397.635.873.635 1.428 0 .635-.238 1.11-.635 1.508-.397.396-.952.555-1.587.555-.634-.08-1.11-.238-1.586-.635Zm-.159 2.3h3.649v12.455h-3.649V33.24Z" fill="#05F"/>
  <path d="M230.449 34.429c1.031.952 1.586 2.3 1.586 4.204v7.14h-3.411v-1.587c-.714 1.19-1.983 1.745-3.808 1.745-.952 0-1.824-.158-2.459-.476-.714-.317-1.269-.793-1.586-1.348-.397-.556-.556-1.19-.556-1.983 0-1.19.476-2.063 1.349-2.777.873-.635 2.221-1.031 4.046-1.031h2.855c0-.794-.238-1.428-.713-1.825-.476-.396-1.19-.634-2.142-.634-.635 0-1.349.079-1.984.317-.634.238-1.189.476-1.665.873l-1.27-2.539a7.768 7.768 0 0 1 2.459-1.11c.952-.239 1.904-.397 2.936-.397 1.824.08 3.331.555 4.363 1.428Zm-3.094 8.646c.476-.317.793-.714 1.031-1.269v-1.269h-2.459c-1.507 0-2.221.476-2.221 1.428 0 .476.158.793.555 1.11.397.238.873.397 1.507.397a3.61 3.61 0 0 0 1.587-.397Z" fill="#05F"/>
  <path d="M243.3 45.138a3.019 3.019 0 0 1-1.349.555c-.555.159-1.031.159-1.666.159-1.507 0-2.618-.397-3.411-1.11-.793-.794-1.19-1.905-1.19-3.332v-5.157h-1.904v-2.776h1.904v-3.015h3.649v3.015h3.094v2.776h-3.094v5.077c0 .556.159.952.397 1.19.238.317.635.397 1.111.397.555 0 1.031-.159 1.427-.476l1.032 2.697Z" fill="#05F"/>
  <path d="M245.521 30.938c-.397-.396-.635-.872-.635-1.428 0-.555.238-1.031.635-1.428.397-.396.952-.555 1.586-.555.635 0 1.19.159 1.587.555.397.397.635.873.635 1.428 0 .635-.238 1.11-.635 1.508-.397.396-.952.555-1.587.555-.634-.08-1.189-.238-1.586-.635Zm-.159 2.3h3.649v12.455h-3.649V33.24Z" fill="#05F"/>
  <path d="M254.723 45.138c-1.031-.555-1.825-1.349-2.459-2.3-.556-.952-.873-2.063-.873-3.332 0-1.27.317-2.38.873-3.332.555-.952 1.428-1.745 2.459-2.3 1.031-.556 2.221-.794 3.57-.794 1.348 0 2.459.238 3.49.793 1.032.556 1.825 1.349 2.459 2.3.556.953.873 2.063.873 3.333 0 1.269-.317 2.38-.873 3.331-.555.952-1.427 1.746-2.459 2.301-1.031.555-2.221.793-3.49.793-1.349 0-2.539-.238-3.57-.793Zm5.791-3.094c.635-.634.873-1.428.873-2.538 0-1.11-.318-1.904-.873-2.539-.635-.634-1.349-.952-2.301-.952-.952 0-1.665.318-2.3.952-.635.635-.873 1.428-.873 2.539 0 1.11.318 1.904.873 2.538.635.635 1.348.952 2.3.952.952 0 1.746-.317 2.301-.952Z" fill="#05F"/>
  <path d="M278.839 34.508c.952.952 1.428 2.3 1.428 4.125v7.14h-3.57v-6.585c0-.952-.238-1.745-.634-2.22-.397-.477-1.031-.715-1.904-.715-.952 0-1.666.318-2.142.873-.555.555-.793 1.428-.793 2.538v6.188h-3.649V33.239h3.49v1.428c.476-.556 1.111-.952 1.825-1.19.714-.318 1.507-.397 2.38-.397 1.348 0 2.617.476 3.569 1.428Z" fill="#05F"/>
  <path d="M85.754 0 68.698 17.135 51.563 0 34.428 17.135 17.372 0 .237 17.135l17.135 17.056 17.056 17.135L51.563 34.19l17.135 17.135L85.754 34.19l17.135-17.056L85.754 0Z" fill="#000"/>
  <path d="M102.869 17.143 85.761 34.252l17.108 17.108 17.109-17.108-17.109-17.109Z" fill="#05F"/>
</svg>
